<svg width="75" height="75" viewBox="0 0 75 75" fill="none" xmlns="http://www.w3.org/2000/svg">
<path d="M20.9267 37.6743C23.7223 37.6743 25.3705 35.997 25.3705 33.1651V32.1704H21.1083V33.3176H24.0635V33.5064C24.0635 35.2636 22.7856 36.4689 20.9267 36.4689C18.792 36.4689 17.4632 34.8424 17.4632 32.2067V32.1994C17.4632 29.6145 18.7702 28.0533 20.9267 28.0533C22.4007 28.0533 23.4173 28.8158 23.9038 30.1445L23.9328 30.2244H25.3052L25.2689 30.0864C24.7824 28.2349 23.3374 26.848 20.9267 26.848C18.0005 26.848 16.1272 28.9247 16.1272 32.1994V32.2067C16.1272 35.5468 18.0005 37.6743 20.9267 37.6743Z" fill="black"/>
<path d="M29.9813 37.6452C32.0652 37.6452 33.4739 36.1349 33.4739 33.7242V33.7097C33.4739 31.299 32.058 29.8033 29.9741 29.8033C27.8901 29.8033 26.4815 31.3063 26.4815 33.7097V33.7242C26.4815 36.1277 27.8829 37.6452 29.9813 37.6452ZM29.9886 36.527C28.6525 36.527 27.7739 35.5032 27.7739 33.7242V33.7097C27.7739 31.9453 28.6598 30.9215 29.9741 30.9215C31.3101 30.9215 32.1814 31.938 32.1814 33.7097V33.7242C32.1814 35.4959 31.3173 36.527 29.9886 36.527Z" fill="black"/>
<path d="M36.9592 37.6452C37.9685 37.6452 38.8761 37.1006 39.3191 36.2729H39.3481V37.5H40.6115V32.2793C40.6115 30.769 39.4933 29.8033 37.7071 29.8033C35.9281 29.8033 34.8462 30.8053 34.7373 32.0469L34.7301 32.1268H35.9499L35.9644 32.0615C36.1097 31.3862 36.7196 30.9215 37.6926 30.9215C38.7454 30.9215 39.3481 31.4806 39.3481 32.4027V33.0344L37.1843 33.1579C35.4489 33.2595 34.4469 34.0655 34.4469 35.3507V35.3652C34.4469 36.7376 35.4562 37.6452 36.9592 37.6452ZM35.7393 35.3652V35.3507C35.7393 34.6464 36.3202 34.1962 37.3295 34.1381L39.3481 34.0147V34.6319C39.3481 35.7283 38.4332 36.5488 37.2424 36.5488C36.3348 36.5488 35.7393 36.0914 35.7393 35.3652Z" fill="black"/>
<path d="M42.2816 37.5H43.545V27.0223H42.2816V37.5Z" fill="black"/>
<path d="M45.9629 28.6705C46.4059 28.6705 46.7544 28.3147 46.7544 27.8791C46.7544 27.4361 46.4059 27.0876 45.9629 27.0876C45.5273 27.0876 45.1715 27.4361 45.1715 27.8791C45.1715 28.3147 45.5273 28.6705 45.9629 28.6705ZM45.3312 37.5H46.5947V29.9485H45.3312V37.5Z" fill="black"/>
<path d="M50.9949 37.6452C52.6794 37.6452 53.9283 36.7158 53.9283 35.3943V35.387C53.9283 34.3124 53.3765 33.7097 51.8517 33.3394L50.6536 33.049C49.8186 32.8457 49.4773 32.4899 49.4773 31.9743V31.9671C49.4773 31.299 50.0437 30.8561 50.9586 30.8561C51.8952 30.8561 52.4543 31.3426 52.556 32.076L52.5633 32.1268H53.7686L53.7613 32.0324C53.667 30.769 52.6141 29.8033 50.9586 29.8033C49.3248 29.8033 48.1848 30.7254 48.1848 32.0252V32.0324C48.1848 33.1216 48.8746 33.7823 50.2978 34.1236L51.4959 34.414C52.3527 34.6246 52.6359 34.9296 52.6359 35.4742V35.4814C52.6359 36.164 52.0259 36.5924 51.0021 36.5924C49.9711 36.5924 49.412 36.1494 49.2595 35.3943L49.245 35.3217H47.9815L47.9888 35.387C48.1413 36.7376 49.2159 37.6452 50.9949 37.6452Z" fill="black"/>
<path d="M57.6968 37.6452C57.9437 37.6452 58.2124 37.6162 58.3721 37.5944V36.5706C58.2632 36.5778 58.118 36.5996 57.9655 36.5996C57.2902 36.5996 56.9344 36.3745 56.9344 35.5686V30.9941H58.3721V29.9485H56.9344V27.9081H55.6274V29.9485H54.5238V30.9941H55.6274V35.5758C55.6274 37.0208 56.31 37.6452 57.6968 37.6452Z" fill="black"/>
<path d="M15.5172 40.1866H44.4309V41.0579H15.5172V40.1866Z" fill="black"/>
<path d="M71.25 48.75V15C71.3727 15 71.4953 14.9937 71.6172 14.982C71.7398 14.9695 71.8609 14.9516 71.9812 14.9281C72.1023 14.9039 72.2211 14.8742 72.3383 14.8383C72.4562 14.8031 72.5719 14.7617 72.6852 14.7148C72.7984 14.6672 72.9094 14.6148 73.018 14.557C73.1258 14.4992 73.2312 14.4359 73.3336 14.368C73.4352 14.3 73.5344 14.2266 73.6289 14.1484C73.7242 14.0711 73.8148 13.9883 73.9016 13.9016C73.9883 13.8148 74.0711 13.7242 74.1484 13.6289C74.2266 13.5344 74.3 13.4352 74.368 13.3336C74.4359 13.2312 74.4992 13.1258 74.557 13.018C74.6148 12.9094 74.6672 12.7984 74.7148 12.6852C74.7617 12.5719 74.8031 12.4563 74.8383 12.3383C74.8742 12.2211 74.9039 12.1023 74.9281 11.9812C74.9516 11.8609 74.9695 11.7398 74.982 11.6172C74.9938 11.4953 75 11.3727 75 11.25C75 11.1273 74.9938 11.0047 74.982 10.8828C74.9695 10.7602 74.9516 10.6391 74.9281 10.5187C74.9039 10.3977 74.8742 10.2789 74.8383 10.1617C74.8031 10.0437 74.7617 9.92813 74.7148 9.81484C74.6672 9.70156 74.6148 9.59062 74.557 9.48203C74.4992 9.37422 74.4359 9.26875 74.368 9.16641C74.3 9.06484 74.2266 8.96562 74.1484 8.87109C74.0711 8.77578 73.9883 8.68516 73.9016 8.59844C73.8148 8.51172 73.7242 8.42891 73.6289 8.35156C73.5344 8.27344 73.4352 8.2 73.3336 8.13203C73.2312 8.06406 73.1258 8.00078 73.018 7.94297C72.9094 7.88516 72.7984 7.83281 72.6852 7.78516C72.5719 7.73828 72.4562 7.69687 72.3383 7.66172C72.2211 7.62578 72.1023 7.59609 71.9812 7.57188C71.8609 7.54844 71.7398 7.53047 71.6172 7.51797C71.4953 7.50625 71.3727 7.5 71.25 7.5H41.25V3.75C41.25 3.62734 41.2437 3.50469 41.232 3.38281C41.2195 3.26016 41.2016 3.13906 41.1781 3.01875C41.1539 2.89766 41.1242 2.77891 41.0883 2.66172C41.0531 2.54375 41.0117 2.42812 40.9648 2.31484C40.9172 2.20156 40.8648 2.09063 40.807 1.98203C40.7492 1.87422 40.6859 1.76875 40.618 1.66641C40.55 1.56484 40.4766 1.46562 40.3984 1.37109C40.3211 1.27578 40.2383 1.18516 40.1516 1.09844C40.0648 1.01172 39.9742 0.928906 39.8789 0.851562C39.7844 0.773438 39.6852 0.7 39.5836 0.632031C39.4812 0.564062 39.3758 0.500781 39.268 0.442969C39.1594 0.385156 39.0484 0.332812 38.9352 0.285156C38.8219 0.238281 38.7062 0.196875 38.5883 0.161719C38.4711 0.125781 38.3523 0.0960938 38.2312 0.071875C38.1109 0.0484376 37.9898 0.0304688 37.8672 0.0179688C37.7453 0.00625 37.6227 0 37.5 0C37.3773 0 37.2547 0.00625 37.1328 0.0179688C37.0102 0.0304688 36.8891 0.0484376 36.7687 0.071875C36.6477 0.0960938 36.5289 0.125781 36.4117 0.161719C36.2938 0.196875 36.1781 0.238281 36.0648 0.285156C35.9516 0.332812 35.8406 0.385156 35.732 0.442969C35.6242 0.500781 35.5187 0.564062 35.4164 0.632031C35.3148 0.7 35.2156 0.773438 35.1211 0.851562C35.0258 0.928906 34.9352 1.01172 34.8484 1.09844C34.7617 1.18516 34.6789 1.27578 34.6016 1.37109C34.5234 1.46562 34.45 1.56484 34.382 1.66641C34.3141 1.76875 34.2508 1.87422 34.193 1.98203C34.1352 2.09063 34.0828 2.20156 34.0352 2.31484C33.9883 2.42812 33.9469 2.54375 33.9117 2.66172C33.8758 2.77891 33.8461 2.89766 33.8219 3.01875C33.7984 3.13906 33.7805 3.26016 33.768 3.38281C33.7562 3.50469 33.75 3.62734 33.75 3.75V7.5H3.75C3.62734 7.5 3.50469 7.50625 3.38281 7.51797C3.26016 7.53047 3.13906 7.54844 3.01875 7.57188C2.89766 7.59609 2.77891 7.62578 2.66172 7.66172C2.54375 7.69687 2.42812 7.73828 2.31484 7.78516C2.20156 7.83281 2.09063 7.88516 1.98203 7.94297C1.87422 8.00078 1.76875 8.06406 1.66641 8.13203C1.56484 8.2 1.46562 8.27344 1.37109 8.35156C1.27578 8.42891 1.18516 8.51172 1.09844 8.59844C1.01172 8.68516 0.928906 8.77578 0.851562 8.87109C0.773438 8.96562 0.7 9.06484 0.632031 9.16641C0.564062 9.26875 0.500781 9.37422 0.442969 9.48203C0.385156 9.59062 0.332812 9.70156 0.285156 9.81484C0.238281 9.92813 0.196875 10.0437 0.161719 10.1617C0.125781 10.2789 0.0960938 10.3977 0.071875 10.5187C0.0484376 10.6391 0.0304688 10.7602 0.0179688 10.8828C0.00625 11.0047 0 11.1273 0 11.25C0 11.3727 0.00625 11.4953 0.0179688 11.6172C0.0304688 11.7398 0.0484376 11.8609 0.071875 11.9812C0.0960938 12.1023 0.125781 12.2211 0.161719 12.3383C0.196875 12.4563 0.238281 12.5719 0.285156 12.6852C0.332812 12.7984 0.385156 12.9094 0.442969 13.018C0.500781 13.1258 0.564062 13.2312 0.632031 13.3336C0.7 13.4352 0.773438 13.5344 0.851562 13.6289C0.928906 13.7242 1.01172 13.8148 1.09844 13.9016C1.18516 13.9883 1.27578 14.0711 1.37109 14.1484C1.46562 14.2266 1.56484 14.3 1.66641 14.368C1.76875 14.4359 1.87422 14.4992 1.98203 14.557C2.09063 14.6148 2.20156 14.6672 2.31484 14.7148C2.42812 14.7617 2.54375 14.8031 2.66172 14.8383C2.77891 14.8742 2.89766 14.9039 3.01875 14.9281C3.13906 14.9516 3.26016 14.9695 3.38281 14.982C3.50469 14.9937 3.62734 15 3.75 15V48.75C3.62734 48.75 3.50469 48.7562 3.38281 48.768C3.26016 48.7805 3.13906 48.7984 3.01875 48.8219C2.89766 48.8461 2.77891 48.8758 2.66172 48.9117C2.54375 48.9469 2.42812 48.9883 2.31484 49.0352C2.20156 49.0828 2.09063 49.1352 1.98203 49.193C1.87422 49.2508 1.76875 49.3141 1.66641 49.382C1.56484 49.45 1.46562 49.5234 1.37109 49.6016C1.27578 49.6789 1.18516 49.7617 1.09844 49.8484C1.01172 49.9352 0.928906 50.0258 0.851562 50.1211C0.773438 50.2156 0.7 50.3148 0.632031 50.4164C0.564062 50.5187 0.500781 50.6242 0.442969 50.732C0.385156 50.8406 0.332812 50.9516 0.285156 51.0648C0.238281 51.1781 0.196875 51.2938 0.161719 51.4117C0.125781 51.5289 0.0960938 51.6477 0.071875 51.7687C0.0484376 51.8891 0.0304688 52.0102 0.0179688 52.1328C0.00625 52.2547 0 52.3773 0 52.5C0 52.6227 0.00625 52.7453 0.0179688 52.8672C0.0304688 52.9898 0.0484376 53.1109 0.071875 53.2312C0.0960938 53.3523 0.125781 53.4711 0.161719 53.5883C0.196875 53.7062 0.238281 53.8219 0.285156 53.9352C0.332812 54.0484 0.385156 54.1594 0.442969 54.268C0.500781 54.3758 0.564062 54.4813 0.632031 54.5836C0.7 54.6852 0.773438 54.7844 0.851562 54.8789C0.928906 54.9742 1.01172 55.0648 1.09844 55.1516C1.18516 55.2383 1.27578 55.3211 1.37109 55.3984C1.46562 55.4766 1.56484 55.55 1.66641 55.618C1.76875 55.6859 1.87422 55.7492 1.98203 55.807C2.09063 55.8648 2.20156 55.9172 2.31484 55.9648C2.42812 56.0117 2.54375 56.0531 2.66172 56.0883C2.77891 56.1242 2.89766 56.1539 3.01875 56.1781C3.13906 56.2016 3.26016 56.2195 3.38281 56.232C3.50469 56.2437 3.62734 56.25 3.75 56.25H20.7L15.2625 69.8625C15.2172 69.9766 15.1773 70.093 15.143 70.2109C15.1086 70.3289 15.0805 70.4484 15.0586 70.5695C15.0359 70.6906 15.0195 70.8125 15.0094 70.9344C14.9984 71.057 14.9945 71.1797 14.9961 71.3031C14.9977 71.4258 15.0055 71.5484 15.0188 71.6703C15.0328 71.793 15.0523 71.9141 15.0781 72.0344C15.1039 72.1547 15.1352 72.2734 15.1727 72.3906C15.2102 72.5078 15.2531 72.6227 15.3016 72.7352C15.35 72.8484 15.4039 72.9586 15.4641 73.0664C15.5234 73.1742 15.5883 73.2781 15.6578 73.3797C15.7273 73.4805 15.8023 73.5781 15.8813 73.6727C15.9609 73.7664 16.0445 73.8562 16.1328 73.9414C16.2211 74.0273 16.3133 74.1086 16.4094 74.1852C16.5055 74.2617 16.6055 74.3336 16.7086 74.4C16.8117 74.4672 16.918 74.5289 17.0273 74.5852C17.1367 74.6414 17.2484 74.6922 17.3625 74.7375C17.8086 74.9133 18.2711 75.0008 18.75 75C18.9367 75 19.1227 74.9867 19.307 74.9586C19.4914 74.9313 19.6734 74.8906 19.8516 74.8359C20.0305 74.7812 20.2039 74.7133 20.3727 74.6328C20.5406 74.5523 20.7023 74.4594 20.857 74.3547C21.0117 74.25 21.157 74.1344 21.2945 74.0078C21.432 73.8812 21.5594 73.7453 21.6758 73.6C21.793 73.4539 21.8984 73.3008 21.993 73.1398C22.0867 72.9781 22.1687 72.8109 22.2375 72.6375L28.8 56.25H33.75V71.25C33.75 71.3727 33.7562 71.4953 33.768 71.6172C33.7805 71.7398 33.7984 71.8609 33.8219 71.9812C33.8461 72.1023 33.8758 72.2211 33.9117 72.3383C33.9469 72.4562 33.9883 72.5719 34.0352 72.6852C34.0828 72.7984 34.1352 72.9094 34.193 73.018C34.2508 73.1258 34.3141 73.2312 34.382 73.3336C34.45 73.4352 34.5234 73.5344 34.6016 73.6289C34.6789 73.7242 34.7617 73.8148 34.8484 73.9016C34.9352 73.9883 35.0258 74.0711 35.1211 74.1484C35.2156 74.2266 35.3148 74.3 35.4164 74.368C35.5187 74.4359 35.6242 74.4992 35.732 74.557C35.8406 74.6148 35.9516 74.6672 36.0648 74.7148C36.1781 74.7617 36.2938 74.8031 36.4117 74.8383C36.5289 74.8742 36.6477 74.9039 36.7687 74.9281C36.8891 74.9516 37.0102 74.9695 37.1328 74.982C37.2547 74.9937 37.3773 75 37.5 75C37.6227 75 37.7453 74.9937 37.8672 74.982C37.9898 74.9695 38.1109 74.9516 38.2312 74.9281C38.3523 74.9039 38.4711 74.8742 38.5883 74.8383C38.7062 74.8031 38.8219 74.7617 38.9352 74.7148C39.0484 74.6672 39.1594 74.6148 39.268 74.557C39.3758 74.4992 39.4812 74.4359 39.5836 74.368C39.6852 74.3 39.7844 74.2266 39.8789 74.1484C39.9742 74.0711 40.0648 73.9883 40.1516 73.9016C40.2383 73.8148 40.3211 73.7242 40.3984 73.6289C40.4766 73.5344 40.55 73.4352 40.618 73.3336C40.6859 73.2312 40.7492 73.1258 40.807 73.018C40.8648 72.9094 40.9172 72.7984 40.9648 72.6852C41.0117 72.5719 41.0531 72.4562 41.0883 72.3383C41.1242 72.2211 41.1539 72.1023 41.1781 71.9812C41.2016 71.8609 41.2195 71.7398 41.232 71.6172C41.2437 71.4953 41.25 71.3727 41.25 71.25V56.25H46.2L52.7625 72.6375C52.8312 72.8109 52.9133 72.9781 53.007 73.1398C53.1016 73.3008 53.207 73.4539 53.3242 73.6C53.4406 73.7453 53.568 73.8812 53.7055 74.0078C53.843 74.1344 53.9883 74.25 54.143 74.3547C54.2977 74.4594 54.4594 74.5523 54.6273 74.6328C54.7961 74.7133 54.9695 74.7812 55.1484 74.8359C55.3266 74.8906 55.5086 74.9313 55.693 74.9586C55.8773 74.9867 56.0633 75 56.25 75C56.7289 75.0008 57.1914 74.9133 57.6375 74.7375C57.7516 74.6922 57.8633 74.6414 57.9727 74.5852C58.082 74.5289 58.1883 74.4672 58.2914 74.4C58.3945 74.3336 58.4945 74.2617 58.5906 74.1852C58.6867 74.1086 58.7789 74.0273 58.8672 73.9414C58.9555 73.8562 59.0391 73.7664 59.1187 73.6727C59.1977 73.5781 59.2727 73.4805 59.3422 73.3797C59.4117 73.2781 59.4766 73.1742 59.5359 73.0664C59.5961 72.9586 59.65 72.8484 59.6984 72.7352C59.7469 72.6227 59.7898 72.5078 59.8273 72.3906C59.8648 72.2734 59.8961 72.1547 59.9219 72.0344C59.9477 71.9141 59.9672 71.793 59.9812 71.6703C59.9945 71.5484 60.0023 71.4258 60.0039 71.3031C60.0055 71.1797 60.0016 71.057 59.9906 70.9344C59.9805 70.8125 59.9641 70.6906 59.9414 70.5695C59.9195 70.4484 59.8914 70.3289 59.857 70.2109C59.8227 70.093 59.7828 69.9766 59.7375 69.8625L54.3 56.25H71.25C71.3727 56.25 71.4953 56.2437 71.6172 56.232C71.7398 56.2195 71.8609 56.2016 71.9812 56.1781C72.1023 56.1539 72.2211 56.1242 72.3383 56.0883C72.4562 56.0531 72.5719 56.0117 72.6852 55.9648C72.7984 55.9172 72.9094 55.8648 73.018 55.807C73.1258 55.7492 73.2312 55.6859 73.3336 55.618C73.4352 55.55 73.5344 55.4766 73.6289 55.3984C73.7242 55.3211 73.8148 55.2383 73.9016 55.1516C73.9883 55.0648 74.0711 54.9742 74.1484 54.8789C74.2266 54.7844 74.3 54.6852 74.368 54.5836C74.4359 54.4813 74.4992 54.3758 74.557 54.268C74.6148 54.1594 74.6672 54.0484 74.7148 53.9352C74.7617 53.8219 74.8031 53.7062 74.8383 53.5883C74.8742 53.4711 74.9039 53.3523 74.9281 53.2312C74.9516 53.1109 74.9695 52.9898 74.982 52.8672C74.9938 52.7453 75 52.6227 75 52.5C75 52.3773 74.9938 52.2547 74.982 52.1328C74.9695 52.0102 74.9516 51.8891 74.9281 51.7687C74.9039 51.6477 74.8742 51.5289 74.8383 51.4117C74.8031 51.2938 74.7617 51.1781 74.7148 51.0648C74.6672 50.9516 74.6148 50.8406 74.557 50.732C74.4992 50.6242 74.4359 50.5187 74.368 50.4164C74.3 50.3148 74.2266 50.2156 74.1484 50.1211C74.0711 50.0258 73.9883 49.9352 73.9016 49.8484C73.8148 49.7617 73.7242 49.6789 73.6289 49.6016C73.5344 49.5234 73.4352 49.45 73.3336 49.382C73.2312 49.3141 73.1258 49.2508 73.018 49.193C72.9094 49.1352 72.7984 49.0828 72.6852 49.0352C72.5719 48.9883 72.4562 48.9469 72.3383 48.9117C72.2211 48.8758 72.1023 48.8461 71.9812 48.8219C71.8609 48.7984 71.7398 48.7805 71.6172 48.768C71.4953 48.7562 71.3727 48.75 71.25 48.75ZM11.25 48.75V15H63.75V48.75H11.25Z" fill="black"/>
</svg>
